<svg width="80" height="80" viewBox="0 0 80 80" fill="none" xmlns="http://www.w3.org/2000/svg">
<g filter="url(#filter0_d_160_3)">
<rect x="6" y="2" width="68" height="68" stroke="white" stroke-width="4"/>
<path d="M31.9151 31.8219C32.1244 29.9762 34.0477 27.3435 35.8331 27.1352C37.2615 26.9685 39.2718 29.4959 40.0983 30.7804C40.0983 30.7804 40.2967 36.3004 40.2967 36.4566C40.2967 36.6129 38.4038 37.2757 37.321 37.3128M31.9151 31.8219C31.1712 30.6068 29.3858 28.2391 28.1955 28.4891C27.2496 28.6877 26.444 29.4967 26.0081 31.197M31.9151 31.8219C31.832 32.5554 31.8882 33.3709 32.0017 34.1133M28.9394 37.2378C29.7164 37.151 31.3795 36.7379 31.8159 35.7797C31.9793 34.8933 32.0235 34.4468 32.0231 34.2483M28.9394 37.2378C28.5346 37.3332 27.8855 37.3385 27.2532 37.0444M28.9394 37.2378C29.3431 37.4808 30.1781 38.0397 30.2888 38.3314M32.0017 34.1133C32.0086 34.1586 32.0157 34.2036 32.0231 34.2483M32.0017 34.1133C32.0134 34.1187 32.0229 34.1576 32.0231 34.2483M32.0231 34.2483C32.2537 35.6559 32.6767 36.7586 32.7086 36.4566C33.1679 36.7367 34.2937 37.2593 35.4364 37.3348M26.0081 31.197C25.7584 32.1713 25.63 33.4382 25.6661 35.0506M26.0081 31.197C25.3982 29.6695 23.8708 26.5727 22.6408 26.4061C21.583 26.2628 21.0852 28.6772 20.914 30.4159M25.6661 35.0506C25.6661 35.325 25.322 35.9847 24.0295 36.6492M25.6661 35.0506C26.0036 36.1553 26.62 36.7499 27.2532 37.0444M20.914 30.4159C20.8861 30.6988 20.8669 30.9638 20.8554 31.197C20.7816 32.3256 20.8986 34.2073 21.5993 35.5098M20.914 30.4159C18.4929 27.6038 17.6813 27.7601 17.1853 27.708C16.8686 27.6747 16.3697 28.7673 16.2573 30.4159M17.1853 34.9019C16.9793 34.5608 16.763 34.1462 16.5406 33.6446C16.2539 32.4592 16.1938 31.3486 16.2573 30.4159M17.1853 34.9019L16.5902 35.2887M17.1853 34.9019C17.3767 35.2186 17.5592 35.4719 17.7297 35.6728M16.2573 30.4159C14.5854 27.3955 13.0689 27.3955 12.7713 27.5518C12.6372 27.6222 12.5233 28.4644 12.5248 29.5306M12.5248 29.5306C12.5266 30.8306 12.7 32.4635 13.2177 33.4363C13.5189 34.0022 13.9251 34.4484 14.3434 34.7902M12.5248 29.5306C11.8796 28.7668 10.4999 27.2705 10.1428 27.3955C9.73457 27.5384 10.1584 32.3854 11.9778 34.6467M14.3434 34.7902C14.1796 35.2589 14.3088 36.3525 12.5248 35.2068C12.33 35.0467 12.1478 34.8579 11.9778 34.6467M14.3434 34.7902C14.4971 34.9158 14.6524 35.0273 14.8047 35.1255M11.9778 34.6467C11.1049 34.1152 10.8867 37.1247 10.8867 38.6959C10.9528 38.9042 11.4223 39.4249 12.7713 39.8415C13.1052 39.4209 13.2362 39.1881 13.2693 39.0679M13.2693 39.0679C13.2952 38.9738 13.2612 38.9486 13.2177 38.9563M13.2693 39.0679C13.2506 39.029 13.2333 38.9916 13.2177 38.9563M13.2693 39.0679C13.5819 39.7173 14.3176 40.8182 15.1519 40.7789C16.2573 40.7268 17.1357 39.9457 17.3837 39.3208M13.2177 38.9563C13.102 38.6091 12.9796 37.7169 13.4161 36.9253C13.8525 36.1338 14.5237 35.3956 14.8047 35.1255M14.8047 35.1255C15.2754 35.4288 15.7175 35.6046 15.995 35.6755L16.5902 35.2887M17.3837 39.3208C17.6317 38.6959 17.2349 37.0295 18.8716 36.3525M17.3837 39.3208C17.4002 40.1193 17.7408 41.7267 18.9707 41.7683C20.2007 41.81 20.7396 41.508 20.8554 41.3517M18.8716 36.3525C18.73 36.3971 18.4788 36.3501 18.1537 36.0921M18.8716 36.3525L20.3098 35.3885M16.5902 35.2887C16.8237 35.2813 17.2982 35.3601 17.7297 35.6728M18.1537 36.0921C18.0235 35.9888 17.8814 35.8516 17.7297 35.6728M18.1537 36.0921C18.0257 35.9197 17.8803 35.782 17.7297 35.6728M21.2025 34.7902L20.3098 35.3885M20.3098 35.3885C20.6735 35.3194 21.4406 35.2467 21.5993 35.5098M21.5993 35.5098C21.8879 36.0463 22.2755 36.4846 22.7896 36.7315M20.8554 41.3517C20.69 40.7095 20.5082 39.2062 21.1033 38.3314C21.6985 37.4565 22.4755 36.9002 22.7896 36.7315M20.8554 41.3517C21.0207 42.0287 21.6886 43.3931 23.0376 43.4348C24.3866 43.4764 25.58 42.7231 26.0081 42.3412M22.7896 36.7315C22.9856 36.8256 23.2 36.892 23.4343 36.9253C23.6521 36.8339 23.8499 36.7415 24.0295 36.6492M26.0081 42.3412C25.8742 41.3865 25.6866 39.3 26.0081 38.5917M26.0081 42.3412C26.1586 42.9661 26.7275 44.2471 27.7987 44.3721C28.87 44.4971 30.1958 42.9314 30.7248 42.1329M26.0081 38.5917C26.0185 38.5688 26.027 38.5458 26.0337 38.5225M26.0081 38.5917C26.0157 38.5701 26.0242 38.547 26.0337 38.5225M24.0295 36.6492C24.7973 36.9902 26.233 37.8271 26.0337 38.5225M26.0337 38.5225C26.1921 38.1138 26.6167 37.3427 27.2532 37.0444M30.7248 42.1329C31.0565 43.9659 32.0202 44.6672 32.4607 44.7887C32.9566 44.7366 34.137 44.1742 34.8908 42.3412C34.8908 41.6304 34.8722 41.0084 34.8405 40.4665M30.7248 42.1329C30.4883 41.2439 30.1636 39.5438 30.2888 38.3314M30.2888 38.3314C30.3299 37.9339 30.4193 37.5888 30.576 37.3419L34.1965 37.2378C34.2898 37.3287 34.4206 37.6 34.5435 38.1231M34.8405 40.4665L35.5356 43.4348C36.0514 44.3096 37.2053 44.8061 37.7178 44.9449C39.2255 45.0699 39.8669 43.5389 39.9992 42.7578C40.0322 42.4974 40.0983 41.4871 40.0983 39.5291C40.0983 37.0816 39.7512 37.8627 39.7512 37.6023C39.7512 37.394 38.1311 37.3225 37.321 37.3128M34.8405 40.4665C34.7779 39.3961 34.6645 38.6377 34.5435 38.1231M34.5435 38.1231C34.5601 37.8926 34.7619 37.4123 35.4364 37.3348M35.4364 37.3348C35.5688 37.3435 35.7013 37.3463 35.8331 37.3419C36.3288 37.3257 36.8293 37.3297 37.321 37.3128M49.571 41.7163C49.4718 42.6536 48.9957 44.5596 47.8848 44.6846C45.9803 44.5596 45.4381 42.5842 45.405 41.6121C45.6567 40.7991 45.7533 40.044 45.7709 39.4253M49.571 41.7163C50.0339 42.5842 51.2275 44.32 52.2988 44.32C53.6011 44.32 54.1529 43.3349 54.319 42.5622M49.571 41.7163L49.908 38.4876M54.319 42.5622C54.3237 42.5404 54.3281 42.5188 54.3322 42.4974M54.319 42.5622C54.3332 42.9661 56.2696 42.9661 57.3079 42.9661C58.1014 43.0442 58.585 42.3802 58.833 41.508M54.319 42.5622C54.3183 42.5417 54.3226 42.5201 54.3322 42.4974M54.3322 42.4974C54.44 41.9315 54.4436 39.2888 53.7588 37.9148M49.908 38.4876L49.9678 37.9148C49.9513 37.6891 49.8488 37.2482 49.571 37.2898C49.2933 37.3315 47.4384 37.3072 46.5457 37.2898L45.7522 37.4461L45.653 38.0189C45.6595 38.0435 45.6659 38.0703 45.6723 38.0992M49.908 38.4876C50.3938 37.9668 50.8605 37.1857 52.6459 37.0816C53.138 37.0528 53.4982 37.392 53.7588 37.9148M53.7588 37.9148C54.1152 37.4634 55.0761 36.5191 56.068 36.3525C56.6235 36.8524 57.1261 36.9774 57.3079 36.9774C57.4162 37.0027 57.5543 37.0518 57.7047 37.1291M57.7047 37.1291C58.1743 37.3702 58.7642 37.885 58.9446 38.8C59.0933 39.5551 59.0809 40.6357 58.833 41.508M57.7047 37.1291C58.0849 36.5057 59.0735 35.2797 59.9861 35.3631C60.6606 35.7797 61.259 36.2657 61.4739 36.4566L61.7715 36.3525M61.7715 36.3525C62.317 36.5434 63.3982 37.3523 63.3585 39.0604C63.3492 39.4617 63.3119 39.806 63.2508 40.1019M61.7715 36.3525L62.4658 35.5714L63.5073 35.3631L64.2017 35.7276C64.4 35.7102 64.8563 35.613 65.0944 35.3631C65.1592 35.295 65.2734 35.2986 65.4124 35.3631M58.833 41.508C59.4488 41.7163 60.8391 42.0912 61.4739 41.9246C62.2794 41.7554 62.9867 41.3802 63.2508 40.1019M63.2508 40.1019C63.7496 40.4665 64.9258 41.133 65.6399 40.8831C66.3043 40.6505 66.5841 40.043 66.6838 39.0604M65.4124 35.3631C65.9117 35.5946 66.731 36.6113 66.731 37.9148C66.731 38.3409 66.718 38.7228 66.6838 39.0604M65.4124 35.3631L66.4335 34.2174C66.5161 34.4604 66.7608 34.9881 67.0782 35.1548C67.3956 35.3214 67.9048 34.7382 68.1197 34.4257C68.5826 35.1548 69.4588 37.0503 69.2604 38.8C69.062 40.5498 67.46 39.7027 66.6838 39.0604M48.5791 31.9782C48.265 30.5374 47.052 26.7837 44.8099 27.2393C41.735 27.8642 39.7512 30.9019 40.4455 30.7284L40.2967 36.3004C40.2306 36.7344 40.8125 37.6023 43.6692 37.6023C47.2401 37.6023 48.5295 36.4566 48.4799 35.0506H48.5791M48.5791 31.9782C49.0586 30.902 50.4241 28.7495 52.0508 28.7495C53.6775 28.7495 54.3487 30.4506 54.481 31.3012L55.8201 28.437L57.2087 26.6665C58.9446 27.1352 59.0768 29.5133 59.3413 30.5721M48.5791 31.9782V35.0506M48.5791 35.0506C48.4634 35.7102 48.8569 37.0711 51.3565 37.2378C53.8561 37.2378 54.6463 35.8838 54.729 35.2068M54.729 35.2068C55.2414 35.7276 56.4549 36.8108 57.2087 36.9774C57.9626 37.144 58.8454 35.6234 59.1925 34.8423M54.729 35.2068C54.8116 34.3563 54.8678 32.3739 54.4314 31.2491M59.3413 30.5721C59.8968 31.4053 59.4736 33.7661 59.1925 34.8423M59.3413 30.5721C61.2458 28.4058 62.8791 27.9336 63.4577 27.9684L63.9537 30.1034M66.4696 33.9738C66.3846 34.0995 66.4097 34.4925 67.1278 35.2068C70.1432 33.2905 70.2027 29.2008 69.8555 27.3955L67.6733 29.8431M66.4696 33.9738C66.4738 33.9676 66.4783 33.962 66.483 33.957C66.9955 33.2627 67.8221 31.4053 67.6733 29.8431M66.4696 33.9738C65.9503 34.6207 64.7917 35.8407 64.2017 35.6755C63.6065 35.5089 63.1932 35.0506 63.061 34.8423M67.6733 29.8431L67.475 27.8642C67.475 27.8642 66.6913 28.1871 63.9537 30.1034M63.061 34.8423C63.5239 34.2868 64.3504 32.5614 63.9537 30.1034M63.061 34.8423C62.5981 35.4672 61.6227 36.6545 61.4243 36.4046C61.2259 36.1546 59.8538 35.2589 59.1925 34.8423M45.7709 39.4253C45.8231 38.8151 45.8051 38.3146 45.6723 38.0992M45.7709 39.4253C45.7876 38.8378 45.733 38.3734 45.6723 38.0992M45.7709 39.4253C45.6812 40.4731 45.3848 41.8448 45.1075 42.6536C43.9172 44.5283 42.8922 44.9623 42.5285 44.9449C41.8584 44.8234 40.4738 44.2575 40.2967 42.9661C40.1197 41.6746 40.223 39.4076 40.2967 38.4355C40.3133 38.0363 40.5645 37.2586 41.4374 37.3419C42.3896 37.6752 44.2809 37.6544 45.1075 37.6023C45.405 37.6023 45.5042 37.7065 45.653 38.071C45.6597 38.0798 45.6662 38.0892 45.6723 38.0992" stroke="white" stroke-width="2"/>
</g>
<defs>
<filter id="filter0_d_160_3" x="0" y="0" width="80" height="80" filterUnits="userSpaceOnUse" color-interpolation-filters="sRGB">
<feFlood flood-opacity="0" result="BackgroundImageFix"/>
<feColorMatrix in="SourceAlpha" type="matrix" values="0 0 0 0 0 0 0 0 0 0 0 0 0 0 0 0 0 0 127 0" result="hardAlpha"/>
<feOffset dy="4"/>
<feGaussianBlur stdDeviation="2"/>
<feComposite in2="hardAlpha" operator="out"/>
<feColorMatrix type="matrix" values="0 0 0 0 0 0 0 0 0 0 0 0 0 0 0 0 0 0 0.25 0"/>
<feBlend mode="normal" in2="BackgroundImageFix" result="effect1_dropShadow_160_3"/>
<feBlend mode="normal" in="SourceGraphic" in2="effect1_dropShadow_160_3" result="shape"/>
</filter>
</defs>
</svg>
